<svg width="321" height="560" viewBox="0 0 321 560" fill="none" xmlns="http://www.w3.org/2000/svg">
<path d="M0.989366 514.244L3.55806 515.881L6.0673 511.75C6.78569 510.388 8.1556 509.842 8.75964 510.302L15.2592 514.296C15.8633 514.756 16.0555 516.175 15.1363 517.382L12.6271 521.513L61.5424 552.076L64.6648 547.139C65.3832 545.778 66.7531 545.232 67.3572 545.691L73.8559 549.685C74.46 550.145 74.6522 551.563 73.7331 552.771L70.6107 557.707L72.7767 559.038L393.194 45.8624L377.627 36.2364L369.898 48.4775L329.649 23.2407L337.378 11.0005L321.41 1.06423L0.989366 514.244ZM12.3129 501.877L16.613 494.975C17.3314 493.614 18.7013 493.068 19.3053 493.528L25.8041 497.521C26.4081 497.981 26.6004 499.4 25.6812 500.607L21.3812 507.508C20.6628 508.87 19.2929 509.416 18.6888 508.956L12.19 504.962C11.3846 504.349 11.3938 503.084 12.3129 501.877ZM22.5073 485.154L26.8074 478.253C27.5258 476.891 28.8957 476.345 29.4997 476.805L35.9985 480.798C36.6025 481.258 36.7948 482.677 35.8756 483.884L31.5756 490.786C30.8572 492.147 29.4873 492.693 28.8832 492.233L22.3844 488.24C21.7764 487.777 21.7855 486.512 22.5073 485.154ZM33.0476 468.377L37.3521 461.471C38.0705 460.11 39.4404 459.564 40.0445 460.023L46.5432 464.017C47.1473 464.477 47.3395 465.895 46.4204 467.103L42.1203 474.004C41.4019 475.366 40.032 475.912 39.4279 475.452L32.9293 471.465C32.3253 471.005 32.3338 469.74 33.0522 468.379L33.0476 468.377ZM43.4392 451.803L47.7393 444.901C48.4577 443.54 49.8276 442.994 50.4316 443.454L56.9304 447.447C57.5344 447.907 57.7267 449.326 56.8075 450.533L52.5074 457.435C51.7891 458.796 50.4191 459.342 49.8151 458.882L43.3163 454.889C42.7123 454.429 42.7214 453.164 43.4392 451.803ZM53.9841 435.028L58.2841 428.126C59.0025 426.765 60.3724 426.219 60.9765 426.679L67.4753 430.672C68.0793 431.132 68.2715 432.551 67.3524 433.758L63.0523 440.659C62.3339 442.021 60.964 442.567 60.36 442.107L53.8612 438.114C53.2572 437.654 53.0649 436.235 53.9841 435.028ZM64.3757 418.454L68.6757 411.553C69.3941 410.191 70.764 409.645 71.3681 410.105L77.8669 414.098C78.4709 414.558 78.6631 415.977 77.744 417.184L73.4439 424.086C72.7255 425.447 71.3556 425.993 70.7516 425.533L64.2528 421.54C63.6487 421.08 63.4565 419.661 64.3757 418.454ZM74.9205 401.679L79.2206 394.777C79.939 393.416 81.3089 392.87 81.913 393.33L88.4117 397.323C89.0158 397.783 89.208 399.202 88.2889 400.409L83.9888 407.311C83.2704 408.672 81.9005 409.218 81.2964 408.758L74.7977 404.765C73.839 404.353 74.0014 402.886 74.9205 401.679ZM85.1108 384.952L89.4109 378.05C90.1292 376.689 91.4992 376.143 92.1032 376.603L98.602 380.596C99.206 381.056 99.3983 382.475 98.4791 383.682L94.179 390.583C93.4606 391.945 92.0901 392.492 91.4861 392.032L84.9873 388.038C84.3833 387.578 84.3924 386.313 85.1102 384.953L85.1108 384.952ZM95.6557 368.177L99.9557 361.275C100.674 359.914 102.044 359.368 102.648 359.828L109.147 363.821C109.751 364.281 109.943 365.7 109.024 366.907L104.724 373.808C104.006 375.17 102.636 375.716 102.032 375.256L95.5328 371.262C94.7755 371.004 94.9373 369.538 95.6557 368.177ZM106.051 351.603L110.351 344.702C111.069 343.341 112.439 342.794 113.043 343.254L119.542 347.248C120.146 347.707 120.338 349.126 119.419 350.333L115.119 357.235C114.401 358.595 113.031 359.142 112.427 358.682L105.928 354.689C105.324 354.229 105.333 352.964 106.051 351.603ZM116.442 335.029L120.743 328.128C121.461 326.767 122.831 326.22 123.435 326.68L129.934 330.674C130.538 331.134 130.73 332.552 129.811 333.76L125.511 340.661C124.792 342.022 123.422 342.568 122.818 342.109L116.32 338.115C115.716 337.655 115.677 336.035 116.442 335.029ZM126.987 318.254L131.287 311.353C132.006 309.991 133.376 309.445 133.98 309.905L140.479 313.899C141.083 314.359 141.275 315.777 140.356 316.984L136.056 323.886C135.337 325.247 133.967 325.793 133.363 325.334L126.864 321.34C126.059 320.727 126.068 319.462 126.987 318.254ZM137.378 301.681L141.678 294.78C142.397 293.418 143.767 292.872 144.371 293.332L150.87 297.326C151.474 297.786 151.666 299.204 150.746 300.412L146.446 307.314C145.728 308.675 144.358 309.221 143.754 308.761L137.255 304.768C136.449 304.155 136.612 302.687 137.378 301.681ZM147.722 284.753L152.022 277.851C152.74 276.49 154.11 275.944 154.714 276.404L161.213 280.397C161.817 280.857 162.009 282.276 161.09 283.483L156.79 290.385C156.072 291.746 154.702 292.292 154.098 291.832L147.599 287.839C146.994 287.382 147.004 286.117 147.722 284.756L147.722 284.753ZM158.113 268.179L162.414 261.278C163.132 259.916 164.502 259.37 165.106 259.83L171.605 263.824C172.209 264.283 172.401 265.702 171.482 266.909L167.182 273.811C166.463 275.172 165.093 275.718 164.489 275.258L157.991 271.265C157.386 270.809 157.548 269.343 158.113 268.183L158.113 268.179ZM168.658 251.404L172.958 244.503C173.677 243.141 175.047 242.595 175.651 243.055L182.15 247.048C182.754 247.508 182.946 248.927 182.026 250.135L177.726 257.036C177.008 258.398 175.638 258.944 175.034 258.484L168.535 254.491C167.931 254.031 167.739 252.612 168.658 251.405L168.658 251.404ZM179.05 234.83L183.35 227.929C184.068 226.567 185.438 226.021 186.042 226.481L192.541 230.475C193.145 230.935 193.337 232.353 192.418 233.56L188.118 240.462C187.4 241.823 186.03 242.369 185.426 241.909L178.927 237.916C178.323 237.456 178.284 235.836 179.051 234.829L179.05 234.83ZM189.595 218.055L193.895 211.154C194.613 209.792 195.983 209.246 196.587 209.706L203.086 213.7C203.69 214.159 203.882 215.578 202.963 216.785L198.663 223.687C197.945 225.048 196.575 225.594 195.971 225.134L189.472 221.141C188.667 220.528 188.676 219.262 189.595 218.055ZM199.786 201.334L204.086 194.432C204.804 193.071 206.174 192.525 206.778 192.985L213.277 196.978C213.881 197.438 214.073 198.857 213.154 200.065L208.853 206.966C208.135 208.327 206.765 208.874 206.161 208.414L199.662 204.42C199.058 203.959 199.221 202.493 199.786 201.334ZM210.331 184.559L214.631 177.657C215.349 176.296 216.719 175.75 217.323 176.209L223.822 180.203C224.426 180.663 224.618 182.081 223.699 183.289L219.399 190.19C218.681 191.552 217.311 192.098 216.707 191.638L210.208 187.644C209.603 187.185 209.613 185.919 210.331 184.559ZM220.722 167.985L225.022 161.083C225.741 159.722 227.111 159.176 227.715 159.636L234.213 163.629C234.817 164.089 235.01 165.508 234.091 166.715L229.791 173.616C229.072 174.978 227.702 175.524 227.098 175.064L220.599 171.07C219.995 170.611 220.157 169.145 220.722 167.985ZM231.267 151.21L235.567 144.308C236.286 142.947 237.656 142.401 238.26 142.861L244.758 146.854C245.362 147.314 245.555 148.732 244.635 149.941L240.335 156.842C239.616 158.203 238.246 158.75 237.642 158.29L231.144 154.296C230.54 153.837 230.348 152.418 231.268 151.21L231.267 151.21ZM241.659 134.636L245.959 127.734C246.677 126.373 248.048 125.826 248.652 126.286L255.151 130.279C255.755 130.739 255.947 132.158 255.028 133.365L250.728 140.267C250.009 141.628 248.639 142.174 248.035 141.714L241.536 137.721C240.731 137.11 240.741 135.841 241.659 134.636ZM252.002 117.707L256.302 110.806C257.021 109.445 258.391 108.898 258.995 109.358L265.493 113.352C266.097 113.812 266.29 115.23 265.371 116.438L261.071 123.339C260.352 124.7 258.982 125.247 258.378 124.787L251.879 120.793C251.275 120.333 251.284 119.068 252.003 117.707L252.002 117.707ZM262.393 101.134L266.693 94.233C267.412 92.8716 268.782 92.3255 269.386 92.7854L275.884 96.7789C276.488 97.2388 276.681 98.6573 275.762 99.8646L271.461 106.766C270.743 108.127 269.373 108.674 268.769 108.214L262.27 104.221C261.668 103.762 261.675 102.499 262.395 101.136L262.393 101.134ZM272.938 84.3593L277.238 77.4578C277.957 76.0964 279.326 75.5504 279.931 76.0103L286.429 80.0038C287.033 80.4636 287.226 81.8822 286.306 83.0895L282.006 89.991C281.288 91.3524 279.918 91.8984 279.314 91.4386L272.815 87.4451C272.211 86.9852 272.22 85.7199 272.939 84.3585L272.938 84.3593ZM283.33 67.7855L287.63 60.8841C288.348 59.5235 289.718 58.9766 290.322 59.4365L296.821 63.43C297.425 63.8899 297.617 65.3084 296.697 66.5165L292.397 73.418C291.68 74.7786 290.309 75.3254 289.705 74.8655L283.206 70.8721C282.602 70.4122 282.41 68.9937 283.329 67.7863L283.33 67.7855ZM293.875 51.0104L298.175 44.109C298.892 42.7484 300.263 42.2015 300.867 42.6614L307.366 46.6549C307.97 47.1147 308.162 48.5333 307.243 49.7406L302.943 56.6421C302.225 58.0026 300.855 58.5496 300.25 58.0897L293.752 54.0962C293.149 53.6389 292.957 52.2203 293.876 51.013L293.875 51.0104ZM304.266 34.4367L308.566 27.5352C309.285 26.1738 310.655 25.6277 311.259 26.0876L317.757 30.0811C318.361 30.541 318.554 31.9595 317.634 33.1669L313.334 40.0683C312.616 41.4297 311.246 41.9757 310.642 41.5159L304.143 37.5282C303.337 36.915 303.346 35.6497 304.266 34.4416L304.266 34.4367ZM314.61 17.5082L318.91 10.6068C319.628 9.24537 320.998 8.69931 321.602 9.15919L328.101 13.1527C328.705 13.6126 328.897 15.0311 327.977 16.2392L323.677 23.1407C322.959 24.5021 321.589 25.0481 320.985 24.5883L314.486 20.5948C313.732 20.3387 313.894 18.8729 314.612 17.5115L314.61 17.5082ZM22.5429 514.754L78.4953 425.388L118.744 450.625L62.7926 539.991L22.5437 514.754L22.5429 514.754ZM83.7723 416.368L139.725 327.002L179.974 352.238L124.022 441.605L83.7723 416.368ZM145.359 317.931L201.312 228.565L241.561 253.801L185.607 343.172L145.358 317.935L145.359 317.931ZM206.789 219.701L262.74 130.337L302.989 155.574L247.038 244.939L206.789 219.701ZM268.219 121.469L324.172 32.1025L364.421 57.3392L308.469 146.706L268.219 121.469ZM70.909 537.266L75.2091 530.365C75.9275 529.003 77.2974 528.457 77.9015 528.917L84.4002 532.911C85.0043 533.37 85.1965 534.789 84.2774 535.996L79.9773 542.898C79.2589 544.259 77.889 544.805 77.2849 544.345L70.7862 540.352C70.1821 539.892 70.1912 538.627 70.909 537.266ZM81.3006 520.692L85.6007 513.791C86.3191 512.429 87.689 511.883 88.293 512.343L94.7918 516.337C95.3959 516.797 95.5881 518.215 94.6689 519.423L90.3689 526.324C89.6505 527.685 88.2806 528.231 87.6765 527.772L81.1778 523.778C80.5737 523.318 80.5348 521.698 81.3006 520.692ZM91.8455 503.917L96.1456 497.016C96.864 495.654 98.2339 495.108 98.8379 495.568L105.337 499.562C105.941 500.022 106.133 501.44 105.214 502.647L100.914 509.549C100.195 510.91 98.8248 511.457 98.2208 510.997L91.722 507.004C90.9166 506.391 90.9264 505.125 91.8455 503.917ZM102.039 487.194L106.339 480.293C107.058 478.931 108.427 478.385 109.032 478.845L115.53 482.838C116.134 483.298 116.327 484.717 115.407 485.924L111.107 492.826C110.389 494.187 109.019 494.733 108.415 494.273L101.916 490.28C101.312 489.82 101.475 488.353 102.039 487.194ZM112.584 470.419L116.884 463.517C117.602 462.157 118.972 461.61 119.576 462.07L126.075 466.063C126.679 466.523 126.871 467.942 125.952 469.149L121.652 476.051C120.934 477.412 119.564 477.958 118.96 477.498L112.461 473.505C111.857 473.045 111.866 471.779 112.584 470.419ZM122.976 453.845L127.276 446.944C127.994 445.582 129.365 445.035 129.969 445.495L136.467 449.489C137.071 449.949 137.264 451.367 136.345 452.574L132.044 459.476C131.326 460.837 129.956 461.383 129.352 460.924L122.853 456.93C122.249 456.47 122.411 455.004 122.976 453.845ZM133.52 437.07L137.821 430.168C138.539 428.807 139.909 428.261 140.513 428.721L147.012 432.714C147.616 433.174 147.808 434.593 146.889 435.8L142.589 442.702C141.87 444.063 140.5 444.609 139.896 444.149L133.398 440.156C132.794 439.696 132.601 438.277 133.52 437.07ZM143.912 420.496L148.212 413.595C148.931 412.233 150.3 411.687 150.904 412.147L157.403 416.141C158.007 416.601 158.2 418.019 157.28 419.226L152.98 426.128C152.262 427.489 150.892 428.035 150.288 427.575L143.789 423.582C142.984 422.969 143.146 421.502 143.912 420.496ZM154.457 403.721L158.757 396.82C159.475 395.458 160.845 394.912 161.449 395.372L167.948 399.365C168.552 399.825 168.744 401.244 167.825 402.451L163.525 409.353C162.807 410.714 161.437 411.26 160.833 410.8L154.334 406.807C153.529 406.194 153.538 404.928 154.457 403.721ZM164.647 386.994L168.947 380.093C169.666 378.731 171.036 378.185 171.64 378.645L178.138 382.638C178.742 383.098 178.935 384.517 178.016 385.724L173.715 392.626C172.997 393.987 171.627 394.533 171.023 394.073L164.524 390.08C163.92 389.62 164.083 388.153 164.647 386.994ZM175.192 370.219L179.492 363.317C180.211 361.956 181.58 361.41 182.184 361.87L188.683 365.863C189.287 366.323 189.48 367.742 188.56 368.949L184.26 375.851C183.542 377.212 182.172 377.758 181.568 377.298L175.069 373.305C174.465 372.845 174.474 371.579 175.192 370.219ZM185.584 353.645L189.884 346.744C190.602 345.382 191.972 344.836 192.576 345.296L199.075 349.29C199.679 349.749 199.871 351.168 198.952 352.375L194.652 359.277C193.933 360.638 192.564 361.184 191.96 360.724L185.461 356.731C184.857 356.271 184.866 355.006 185.584 353.645ZM196.129 336.87L200.429 329.969C201.147 328.607 202.517 328.061 203.121 328.521L209.62 332.514C210.224 332.974 210.416 334.393 209.497 335.6L205.197 342.502C204.478 343.863 203.108 344.409 202.504 343.949L196.006 339.956C195.402 339.496 195.209 338.077 196.129 336.869L196.129 336.87ZM206.52 320.296L210.82 313.395C211.538 312.034 212.908 311.487 213.513 311.947L220.011 315.941C220.615 316.401 220.808 317.819 219.888 319.026L215.588 325.928C214.871 327.288 213.5 327.835 212.896 327.375L206.397 323.382C205.592 322.769 205.601 321.504 206.52 320.296ZM216.864 303.368L221.164 296.466C221.882 295.105 223.252 294.559 223.856 295.019L230.355 299.012C230.959 299.472 231.151 300.891 230.231 302.099L225.931 309C225.213 310.362 223.843 310.908 223.239 310.448L216.74 306.454C216.136 305.994 216.145 304.729 216.863 303.369L216.864 303.368ZM227.255 286.794L231.555 279.893C232.274 278.531 233.644 277.985 234.248 278.445L240.746 282.438C241.35 282.898 241.543 284.317 240.624 285.524L236.323 292.426C235.605 293.787 234.235 294.333 233.631 293.873L227.132 289.88C226.528 289.42 226.537 288.155 227.256 286.793L227.255 286.794ZM237.799 270.02L242.1 263.118C242.818 261.757 244.188 261.211 244.792 261.671L251.291 265.664C251.895 266.124 252.087 267.543 251.168 268.75L246.868 275.651C246.149 277.013 244.779 277.559 244.175 277.099L237.677 273.105C236.919 272.847 237.082 271.38 237.8 270.019L237.799 270.02ZM248.19 253.448L252.49 246.546C253.208 245.185 254.578 244.639 255.182 245.098L261.681 249.092C262.285 249.552 262.477 250.97 261.558 252.178L257.258 259.08C256.539 260.441 255.169 260.988 254.565 260.528L248.066 256.535C247.462 256.075 247.27 254.656 248.189 253.449L248.19 253.448ZM258.735 236.672L263.035 229.771C263.753 228.41 265.123 227.863 265.727 228.323L272.226 232.317C272.83 232.777 273.022 234.195 272.103 235.403L267.803 242.304C267.085 243.665 265.715 244.212 265.111 243.752L258.612 239.758C257.855 239.5 257.816 237.88 258.735 236.672L258.735 236.672ZM269.126 220.099L273.426 213.197C274.145 211.836 275.515 211.29 276.119 211.75L282.619 215.746C283.223 216.206 283.416 217.624 282.496 218.831L278.196 225.733C277.478 227.094 276.108 227.64 275.504 227.18L269.005 223.187C268.2 222.574 268.209 221.309 269.129 220.1L269.126 220.099ZM279.47 203.17L283.77 196.269C284.488 194.907 285.858 194.361 286.462 194.821L292.961 198.815C293.565 199.275 293.757 200.693 292.838 201.901L288.538 208.803C287.819 210.164 286.449 210.71 285.845 210.25L279.346 206.257C278.591 206 278.754 204.533 279.475 203.169L279.47 203.17ZM289.861 186.596L294.162 179.695C294.88 178.334 296.25 177.787 296.854 178.247L303.353 182.241C303.957 182.701 304.149 184.119 303.23 185.327L298.93 192.228C298.211 193.589 296.841 194.136 296.237 193.676L289.739 189.682C289.135 189.222 289.144 187.957 289.861 186.596ZM300.411 169.829L304.711 162.927C305.429 161.566 306.799 161.02 307.403 161.479L313.902 165.473C314.506 165.933 314.698 167.351 313.779 168.559L309.479 175.46C308.761 176.821 307.391 177.368 306.787 176.908L300.288 172.914C299.531 172.656 299.693 171.189 300.412 169.828L300.411 169.829ZM310.802 153.255L315.103 146.353C315.821 144.992 317.191 144.446 317.795 144.906L324.294 148.899C324.898 149.359 325.09 150.778 324.17 151.986L319.87 158.887C319.152 160.249 317.782 160.795 317.178 160.335L310.679 156.341C310.075 155.881 309.883 154.463 310.802 153.256L310.802 153.255ZM321.194 136.681L325.494 129.78C326.213 128.418 327.582 127.872 328.187 128.332L334.685 132.325C335.289 132.785 335.482 134.204 334.562 135.412L330.262 142.313C329.543 143.675 328.173 144.221 327.569 143.761L321.071 139.768C320.265 139.154 320.428 137.688 321.193 136.682L321.194 136.681ZM331.538 119.753L335.839 112.852C336.557 111.49 337.927 110.944 338.531 111.404L345.03 115.398C345.634 115.857 345.826 117.276 344.907 118.483L340.605 125.379C339.887 126.74 338.517 127.286 337.913 126.826L331.414 122.833C330.81 122.373 330.819 121.108 331.537 119.746L331.538 119.753ZM341.93 103.179L346.23 96.278C346.948 94.9166 348.318 94.3705 348.922 94.8304L355.421 98.8239C356.025 99.2837 356.217 100.702 355.298 101.91L350.998 108.811C350.28 110.172 348.91 110.719 348.306 110.259L341.807 106.265C341.203 105.805 341.365 104.339 341.93 103.179ZM352.475 86.4043L356.775 79.5028C357.493 78.1414 358.863 77.5953 359.467 78.0552L365.966 82.0487C366.57 82.5086 366.762 83.9272 365.843 85.1345L361.543 92.0359C360.825 93.3973 359.455 93.9434 358.851 93.4835L352.352 89.4901C351.748 89.0302 351.757 87.7649 352.475 86.4043ZM362.867 69.8305L367.167 62.9291C367.885 61.5677 369.255 61.0216 369.859 61.4815L376.358 65.475C376.962 65.9349 377.154 67.3534 376.235 68.5607L371.935 75.4622C371.216 76.8235 369.846 77.3696 369.242 76.9097L362.744 72.9163C362.14 72.4564 362.1 70.8372 362.867 69.8305ZM373.411 53.0554L377.711 46.1539C378.43 44.7925 379.8 44.2465 380.404 44.7063L386.903 48.6998C387.507 49.1597 387.699 50.5783 386.78 51.7856L382.48 58.6871C381.761 60.0485 380.391 60.5945 379.787 60.1347L373.288 56.1411C372.684 55.6813 372.492 54.2627 373.411 53.0554Z" fill="white" stroke="white" stroke-width="0.265064"/>
</svg>
