<svg width="93" height="30" viewBox="0 0 93 30" fill="none" xmlns="http://www.w3.org/2000/svg">
<path d="M1.94091 10.7045L19.1458 10.7056L19.148 18.4575L1.94309 18.4564L1.94091 10.7045Z" fill="white" stroke="#FF0000" stroke-width="0.37609"/>
<path d="M1.17185 8.40547L1.16814 8.85916L1.88717 8.85024C2.11576 8.83318 2.29262 8.96303 2.28222 9.07558L2.29088 10.2105C2.28048 10.323 2.11622 10.4595 1.89212 10.4388L1.17308 10.4477L1.17376 19.0312L2.04319 19.0362C2.27178 19.0191 2.44864 19.149 2.43824 19.2615L2.44693 20.3964C2.43653 20.509 2.27224 20.6455 2.04814 20.6248L1.1787 20.6198L1.18195 20.9978L91.2206 20.9602L91.208 18.2368L89.0532 18.2267L89.0634 11.1569L91.2181 11.1671L91.2125 8.36807L1.17565 8.40783L1.17185 8.40547ZM3.59178 8.81785L4.79736 8.8157C5.02595 8.79864 5.20281 8.92848 5.19241 9.04103L5.2011 10.1759C5.1907 10.2885 5.02641 10.425 4.80231 10.4043L3.59673 10.4064C3.36814 10.4235 3.19128 10.2936 3.20168 10.1811L3.19299 9.0462C3.20339 8.93365 3.40104 8.8384 3.59178 8.81785ZM6.54033 8.82501L7.74591 8.82287C7.9745 8.80581 8.15136 8.93565 8.14096 9.0482L8.14965 10.1831C8.13925 10.2956 7.97496 10.4321 7.75086 10.4114L6.54528 10.4136C6.31669 10.4306 6.13983 10.3008 6.15023 10.1882L6.14154 9.05337C6.14995 8.94063 6.31074 8.84198 6.53924 8.82592L6.54033 8.82501ZM9.45301 8.82887L10.6586 8.82672C10.8872 8.80966 11.064 8.9395 11.0536 9.05205L11.0623 10.1869C11.0519 10.2995 10.8876 10.436 10.6635 10.4153L9.45796 10.4174C9.22937 10.4345 9.05251 10.3046 9.06291 10.1921L9.05422 9.05722C9.06462 8.94467 9.26577 8.81157 9.45301 8.82887ZM12.4015 8.83703L13.607 8.83488C13.8356 8.81783 14.0125 8.94767 14.0021 9.06022L14.0108 10.1951C14.0004 10.3077 13.8361 10.4442 13.612 10.4235L12.4064 10.4256C12.1778 10.4427 12.001 10.3128 12.0114 10.2003L12.0027 9.06538C12.0166 8.91499 12.1774 8.81633 12.4015 8.83703ZM15.3175 8.80503L16.523 8.80288C16.7516 8.78582 16.9285 8.91567 16.9181 9.02822L16.9268 10.1631C16.9164 10.2756 16.7521 10.4122 16.528 10.3915L15.3224 10.3936C15.0938 10.4107 14.917 10.2808 14.9274 10.1683L14.9187 9.03338C14.9291 8.92083 15.1267 8.82558 15.3175 8.80503ZM18.2659 8.81319L19.4715 8.81105C19.7001 8.79399 19.8769 8.92384 19.8665 9.03638L19.8752 10.1713C19.8648 10.2838 19.7005 10.4203 19.4764 10.3996L18.2709 10.4018C18.0423 10.4188 17.8654 10.289 17.8758 10.1764L17.8671 9.04155C17.8775 8.929 18.0383 8.83034 18.2659 8.81319ZM21.1786 8.81705L22.3842 8.8149C22.6128 8.79784 22.7896 8.92769 22.7792 9.04024L22.7879 10.1751C22.7775 10.2877 22.6132 10.4242 22.3891 10.4035L21.1835 10.4056C20.955 10.4227 20.7781 10.2928 20.7885 10.1803L20.7798 9.0454C20.7902 8.93285 20.951 8.8342 21.1786 8.81705ZM24.1271 8.82521L25.3326 8.82306C25.5612 8.80601 25.7381 8.93586 25.7277 9.0484L25.7364 10.1833C25.726 10.2958 25.5617 10.4323 25.3376 10.4116L24.132 10.4138C23.9034 10.4308 23.7266 10.301 23.737 10.1885L23.7283 9.05356C23.7387 8.94102 23.903 8.80451 24.1271 8.82521ZM27.0397 8.82907L28.2453 8.82692C28.4739 8.80986 28.6508 8.93971 28.6404 9.05226L28.6491 10.1871C28.6387 10.2997 28.4744 10.4362 28.2503 10.4155L27.0447 10.4176C26.8161 10.4347 26.6392 10.3049 26.6496 10.1923L26.641 9.05742C26.6513 8.94487 26.8156 8.80837 27.0397 8.82907ZM29.9883 8.83624L31.1939 8.83409C31.4225 8.81703 31.5993 8.94688 31.5889 9.05943L31.5976 10.1943C31.5872 10.3069 31.4229 10.4434 31.1988 10.4227L29.9932 10.4248C29.7646 10.4419 29.5878 10.312 29.5982 10.1995L29.5895 9.06459C29.6034 8.91419 29.7642 8.81554 29.9883 8.83624ZM32.9043 8.80424L34.1099 8.8021C34.3385 8.78504 34.5153 8.91488 34.5049 9.02742L34.5136 10.1623C34.5032 10.2749 34.3389 10.4114 34.1148 10.3907L32.9092 10.3928C32.6806 10.4099 32.5038 10.28 32.5142 10.1675L32.5055 9.03259C32.5159 8.92004 32.6767 8.82139 32.9043 8.80424ZM35.8528 8.81141L37.0584 8.80926C37.287 8.7922 37.4639 8.92205 37.4535 9.03459L37.4621 10.1695C37.4518 10.282 37.2875 10.4185 37.0634 10.3978L35.8578 10.4C35.6292 10.417 35.4523 10.2872 35.4627 10.1746L35.454 9.03976C35.4266 8.92372 35.6252 8.82856 35.8528 8.81141ZM38.7655 8.81527L39.9711 8.81312C40.1997 8.79606 40.3766 8.9259 40.3662 9.03845L40.3748 10.1733C40.3644 10.2859 40.2002 10.4224 39.9761 10.4017L38.7705 10.4038C38.5419 10.4209 38.365 10.291 38.3754 10.1785L38.3575 9.04577C38.3679 8.93323 38.5287 8.83457 38.7563 8.81742L38.7655 8.81527ZM41.7141 8.82243L42.9196 8.82028C43.1482 8.80323 43.3251 8.93307 43.3147 9.04562L43.3234 10.1805C43.313 10.293 43.1487 10.4295 42.9246 10.4088L41.719 10.411C41.4904 10.4281 41.3136 10.2982 41.324 10.1857L41.3153 9.05079C41.2789 8.93391 41.481 8.80091 41.7051 8.82161L41.7141 8.82243ZM44.6267 8.82629L45.8324 8.82414C46.0609 8.80709 46.2378 8.93693 46.2274 9.04948L46.2361 10.1844C46.2257 10.2969 46.0614 10.4334 45.8373 10.4127L44.6317 10.4149C44.4031 10.4319 44.2262 10.3021 44.2366 10.1895L44.228 9.05464C44.2308 8.90423 44.3916 8.80557 44.6167 8.82636L44.6267 8.82629ZM47.5786 8.7976L48.7842 8.79545C49.0128 8.77839 49.1896 8.90824 49.1792 9.02079L49.1879 10.1557C49.1775 10.2682 49.0132 10.4047 48.7891 10.384L47.5836 10.3862C47.355 10.4032 47.1781 10.2734 47.1885 10.1608L47.1798 9.02595C47.1524 8.90991 47.351 8.81475 47.5786 8.7976ZM50.4912 8.80245L51.6968 8.8003C51.9254 8.78325 52.1022 8.9131 52.0919 9.02564L52.1005 10.1605C52.0901 10.2731 51.9258 10.4096 51.7017 10.3889L50.4961 10.391C50.2676 10.4081 50.0907 10.2782 50.1011 10.1657L50.0924 9.0308C50.1028 8.91825 50.2636 8.8196 50.4912 8.80245ZM53.4397 8.80962L54.6454 8.80747C54.8739 8.79042 55.0508 8.92026 55.0404 9.03281L55.0491 10.1677C55.0387 10.2802 54.8744 10.4167 54.6503 10.396L53.4447 10.3982C53.2161 10.4152 53.0392 10.2854 53.0496 10.1729L53.041 9.03797C53.0135 8.92193 53.2121 8.82677 53.4397 8.80962ZM56.3524 8.81347L57.558 8.81133C57.7866 8.79427 57.9635 8.92412 57.9531 9.03667L57.9617 10.1715C57.9513 10.2841 57.7871 10.4206 57.563 10.3999L56.3574 10.402C56.1288 10.4191 55.9519 10.2893 55.9623 10.1767L55.9536 9.04182C55.9511 8.92808 56.1154 8.79158 56.3395 8.81228L56.3524 8.81347ZM59.265 8.81832L60.4706 8.81618C60.6992 8.79912 60.8761 8.92897 60.8657 9.04152L60.8744 10.1764C60.864 10.2889 60.6997 10.4254 60.4756 10.4047L59.27 10.4069C59.0414 10.424 58.8645 10.2941 58.8749 10.1816L58.8663 9.04668C58.8629 8.93085 59.0638 8.79974 59.2511 8.81704L59.265 8.81832ZM62.2136 8.82549L63.4192 8.82335C63.6478 8.80629 63.8246 8.93614 63.8142 9.04869L63.8229 10.1836C63.8125 10.2961 63.6482 10.4326 63.4241 10.4119L62.2185 10.4141C61.9899 10.4311 61.8131 10.3013 61.8235 10.1887L61.8148 9.05384C61.8147 8.90216 61.9745 8.80341 62.1996 8.8242L62.2136 8.82549ZM65.1296 8.7935L66.3352 8.79135C66.5638 8.7743 66.7406 8.90414 66.7302 9.01668L66.7389 10.1516C66.7285 10.2641 66.5642 10.4006 66.3401 10.3799L65.1345 10.3821C64.9059 10.3991 64.7291 10.2693 64.7395 10.1567L64.7308 9.02185C64.7254 8.90684 64.92 8.81131 65.1147 8.79112L65.1296 8.7935ZM68.0781 8.80067L69.2837 8.79852C69.5123 8.78146 69.6892 8.9113 69.6788 9.02385L69.6874 10.1587C69.6771 10.2713 69.5128 10.4078 69.2887 10.3871L68.0831 10.3892C67.8545 10.4063 67.6776 10.2764 67.688 10.1639L67.6793 9.02902C67.6749 8.91409 67.8327 8.81516 68.0632 8.79929L68.0781 8.80067ZM70.9908 8.80452L72.1964 8.80238C72.425 8.78532 72.6018 8.91516 72.5914 9.02771L72.6001 10.1626C72.5897 10.2751 72.4254 10.4116 72.2013 10.3909L70.9957 10.3931C70.7671 10.4101 70.5903 10.2803 70.6007 10.1678L70.592 9.03288C70.6024 8.92033 70.8 8.82507 70.9908 8.80452ZM73.9393 8.81169L75.1449 8.80954C75.3735 8.79249 75.5504 8.92233 75.54 9.03488L75.5487 10.1698C75.5383 10.2823 75.374 10.4188 75.1499 10.3981L73.9443 10.4003C73.7157 10.4173 73.5388 10.2875 73.5492 10.1749L73.5406 9.04004C73.534 8.92593 73.6979 8.7944 73.9229 8.8152L73.9393 8.81169ZM76.852 8.81555L78.0576 8.81339C78.2862 8.79634 78.4631 8.92618 78.4527 9.03873L78.4614 10.1736C78.451 10.2862 78.2867 10.4227 78.0626 10.402L76.857 10.4041C76.6284 10.4212 76.4515 10.2913 76.4619 10.1788L76.4533 9.0439C76.4672 8.8935 76.6648 8.79825 76.852 8.81555ZM79.8005 8.82371L81.0061 8.82156C81.2347 8.80451 81.4115 8.93435 81.4011 9.0469L81.4098 10.1818C81.3994 10.2943 81.2351 10.4308 81.011 10.4101L79.8054 10.4123C79.5768 10.4293 79.4 10.2995 79.4104 10.1869L79.4017 9.05206C79.4156 8.90167 79.5764 8.80301 79.8005 8.82371ZM82.7165 8.79171L83.9221 8.78956C84.1507 8.7725 84.3275 8.90234 84.3171 9.01489L84.3258 10.1498C84.3154 10.2623 84.1511 10.3988 83.927 10.3781L82.7214 10.3803C82.4928 10.3973 82.316 10.2675 82.3264 10.1549L82.3177 9.02006C82.3093 8.90477 82.5069 8.80952 82.7016 8.78933L82.7165 8.79171ZM85.6649 8.79987L86.8705 8.79772C87.0991 8.78067 87.276 8.91052 87.2656 9.02306L87.2742 10.1579C87.2638 10.2705 87.0996 10.407 86.8755 10.3863L85.6699 10.3884C85.4413 10.4055 85.2644 10.2756 85.2748 10.1631L85.2662 9.02822C85.2766 8.91568 85.4373 8.81702 85.6649 8.79987ZM88.5776 8.80373L89.7832 8.80158C90.0118 8.78453 90.1887 8.91437 90.1783 9.02692L90.187 10.1618C90.1766 10.2743 90.0123 10.4109 89.7882 10.3902L88.5826 10.3923C88.354 10.4094 88.1771 10.2795 88.1875 10.167L88.1788 9.03208C88.1684 8.9166 88.3277 8.77964 88.5578 8.80089L88.5776 8.80373ZM2.82982 11.1291L18.5209 11.1421L18.5108 18.2118L2.81968 18.1989L2.82982 11.1291ZM20.0716 11.1336L35.7627 11.1466L35.7525 18.2163L20.0615 18.2034L20.0716 11.1336ZM37.3144 11.1382L53.0055 11.1512L52.9953 18.2209L37.3043 18.208L37.3144 11.1382ZM54.5945 11.1081L70.2856 11.121L70.2755 18.1908L54.5844 18.1778L54.5945 11.1081ZM71.8363 11.1126L87.5084 11.1248L87.4983 18.1945L71.8072 18.1816L71.8173 11.1119L71.8363 11.1126ZM3.79619 19.0454L5.0018 19.0433C5.23039 19.0262 5.40725 19.1561 5.39685 19.2686L5.40554 20.4035C5.39514 20.5161 5.23085 20.6526 5.00675 20.6319L3.80114 20.634C3.57255 20.6511 3.39569 20.5212 3.40609 20.4087L3.3822 19.2754C3.35825 19.1215 3.55689 19.0263 3.78099 19.047L3.79619 19.0454ZM6.71219 19.0134L7.9178 19.0113C8.14639 18.9942 8.32324 19.1241 8.31285 19.2366L8.32153 20.3715C8.31114 20.4841 8.14684 20.6206 7.92274 20.5999L6.71713 20.602C6.48854 20.6191 6.31172 20.4892 6.32211 20.3767L6.2982 19.2434C6.30859 19.1309 6.46939 19.0322 6.69699 19.015L6.71219 19.0134ZM9.66074 19.0206L10.8663 19.0185C11.0949 19.0014 11.2718 19.1312 11.2614 19.2438L11.2701 20.3787C11.2597 20.4912 11.0954 20.6277 10.8713 20.607L9.66568 20.6092C9.43709 20.6262 9.26024 20.4964 9.27063 20.3838L9.26198 19.249C9.23453 19.1329 9.43314 19.0378 9.66074 19.0206ZM12.5735 19.0245L13.779 19.0223C14.0076 19.0053 14.1845 19.1351 14.1741 19.2477L14.1828 20.3825C14.1724 20.4951 14.0081 20.6316 13.784 20.6109L12.5784 20.613C12.3498 20.6301 12.1729 20.5002 12.1833 20.3877L12.1747 19.2528C12.1851 19.1403 12.3459 19.0416 12.5735 19.0245ZM15.522 19.0316L16.7276 19.0295C16.9562 19.0124 17.133 19.1423 17.1226 19.2548L17.1313 20.3897C17.1209 20.5022 16.9566 20.6388 16.7325 20.6181L15.5269 20.6202C15.2983 20.6372 15.1215 20.5074 15.1319 20.3949L15.1232 19.26C15.0958 19.1439 15.2979 19.0109 15.522 19.0316ZM18.4346 19.0365L19.6402 19.0343C19.8688 19.0173 20.0456 19.1471 20.0352 19.2597L20.0439 20.3945C20.0335 20.5071 19.8692 20.6436 19.6451 20.6229L18.4395 20.625C18.2109 20.6421 18.0341 20.5123 18.0445 20.3997L18.0358 19.2648C18.0497 19.1144 18.2105 19.0158 18.4346 19.0365ZM21.3506 19.0045L22.5562 19.0023C22.7848 18.9853 22.9616 19.1151 22.9512 19.2277L22.9599 20.3626C22.9495 20.4751 22.7852 20.6116 22.5611 20.5909L21.3555 20.5931C21.1269 20.6101 20.9501 20.4803 20.9605 20.3677L20.9518 19.2328C20.9622 19.1203 21.1598 19.025 21.3506 19.0045ZM24.2991 19.0117L25.5047 19.0095C25.7333 18.9924 25.9102 19.1223 25.8998 19.2348L25.9084 20.3697C25.898 20.4823 25.7338 20.6188 25.5097 20.5981L24.3041 20.6002C24.0755 20.6173 23.8986 20.4874 23.909 20.3749L23.9003 19.24C23.9107 19.1275 24.0715 19.0288 24.2991 19.0117ZM27.2118 19.0155L28.4174 19.0134C28.646 18.9963 28.8228 19.1261 28.8124 19.2387L28.8211 20.3736C28.8107 20.4861 28.6464 20.6226 28.4223 20.6019L27.2168 20.6041C26.9882 20.6211 26.8113 20.4913 26.8217 20.3787L26.813 19.2439C26.8234 19.1313 27.0211 19.0361 27.2118 19.0155ZM30.1603 19.0237L31.3658 19.0215C31.5944 19.0045 31.7713 19.1343 31.7609 19.2469L31.7696 20.3817C31.7592 20.4943 31.5949 20.6308 31.3708 20.6101L30.1652 20.6122C29.9366 20.6293 29.7598 20.4995 29.7702 20.3869L29.7615 19.252C29.7719 19.1395 29.9362 19.003 30.1603 19.0237ZM33.073 19.0275L34.2785 19.0254C34.5071 19.0083 34.684 19.1382 34.6736 19.2507L34.6823 20.3856C34.6719 20.4981 34.5076 20.6347 34.2835 20.614L33.0779 20.6161C32.8493 20.6331 32.6725 20.5033 32.6828 20.3908L32.6742 19.2559C32.6846 19.1433 32.8857 19.0102 33.073 19.0275ZM36.0215 19.0347L37.2271 19.0325C37.4557 19.0155 37.6325 19.1453 37.6221 19.2579L37.6308 20.3928C37.6204 20.5053 37.4561 20.6418 37.232 20.6211L36.0264 20.6233C35.7979 20.6403 35.621 20.5105 35.6314 20.3979L35.6227 19.263C35.6366 19.1126 35.7974 19.014 36.0215 19.0347ZM38.9375 19.0027L40.1431 19.0006C40.3717 18.9835 40.5485 19.1133 40.5381 19.2259L40.5468 20.3608C40.5364 20.4733 40.3721 20.6098 40.148 20.5891L38.9424 20.5913C38.7138 20.6083 38.537 20.4785 38.5474 20.3659L38.5387 19.231C38.5491 19.1185 38.7467 19.0232 38.9375 19.0027ZM41.886 19.0099L43.0916 19.0077C43.3202 18.9907 43.4971 19.1205 43.4867 19.233L43.4954 20.3679C43.485 20.4805 43.3207 20.617 43.0966 20.5963L41.891 20.5984C41.6624 20.6155 41.4855 20.4856 41.4959 20.3731L41.4872 19.2382C41.4976 19.1257 41.6584 19.027 41.886 19.0099ZM44.7987 19.0137L46.0043 19.0116C46.2329 18.9945 46.4098 19.1244 46.3994 19.2369L46.408 20.3718C46.3976 20.4843 46.2334 20.6208 46.0093 20.6001L44.8037 20.6023C44.5751 20.6193 44.3982 20.4895 44.4086 20.377L44.3686 19.2442C44.379 19.1316 44.5766 19.0364 44.7674 19.0158L44.7987 19.0137ZM47.7473 19.0209L48.9529 19.0187C49.1814 19.0017 49.3583 19.1315 49.3479 19.2441L49.3566 20.379C49.3462 20.4915 49.1819 20.628 48.9578 20.6073L47.7522 20.6095C47.5236 20.6265 47.3468 20.4967 47.3572 20.3841L47.3485 19.2492C47.3589 19.1367 47.5232 19.0002 47.7473 19.0209ZM50.66 19.0247L51.8656 19.0226C52.0942 19.0055 52.271 19.1354 52.2606 19.2479L52.2693 20.3828C52.2589 20.4954 52.0946 20.6319 51.8705 20.6112L50.6649 20.6133C50.4363 20.6304 50.2595 20.5005 50.2698 20.388L50.2612 19.2531C50.2751 19.1027 50.4359 19.004 50.66 19.0247ZM53.6118 18.9961L54.8174 18.9939C55.046 18.9768 55.2228 19.1067 55.2124 19.2192L55.2211 20.3541C55.2107 20.4667 55.0464 20.6032 54.8223 20.5825L53.6168 20.5846C53.3882 20.6017 53.2113 20.4718 53.2217 20.3593L53.213 19.2244C53.2234 19.1119 53.3842 19.0132 53.6118 18.9961ZM56.5244 19.0009L57.73 18.9988C57.9586 18.9817 58.1355 19.1116 58.1251 19.2241L58.1337 20.359C58.1233 20.4715 57.9591 20.608 57.735 20.5873L56.5293 20.5895C56.3008 20.6065 56.1239 20.4767 56.1343 20.3641L56.1256 19.2293C56.136 19.1167 56.2968 19.0181 56.5244 19.0009ZM59.473 19.0081L60.6786 19.0059C60.9072 18.9889 61.084 19.1187 61.0736 19.2313L61.0823 20.3661C61.0719 20.4787 60.9076 20.6152 60.6835 20.5945L59.4779 20.5966C59.2493 20.6137 59.0725 20.4839 59.0828 20.3713L59.0742 19.2364C59.0846 19.1239 59.2454 19.0252 59.473 19.0081ZM62.3856 19.0119L63.5912 19.0098C63.8198 18.9927 63.9967 19.1226 63.9863 19.2351L63.9949 20.37C63.9846 20.4825 63.8203 20.6191 63.5962 20.5984L62.3906 20.6005C62.162 20.6176 61.9851 20.4877 61.9955 20.3752L61.9868 19.2403C61.9663 19.1259 62.1306 18.9894 62.3557 19.0102L62.3856 19.0119ZM65.3341 19.0201L66.5397 19.0179C66.7683 19.0009 66.9451 19.1307 66.9348 19.2433L66.9434 20.3782C66.933 20.4907 66.7687 20.6272 66.5446 20.6065L65.339 20.6087C65.1104 20.6257 64.9336 20.4959 64.944 20.3833L64.9353 19.2484C64.9492 19.098 65.11 18.9994 65.3341 19.0201ZM68.2468 19.0239L69.4524 19.0218C69.681 19.0047 69.8578 19.1346 69.8474 19.2471L69.8561 20.382C69.8457 20.4946 69.6814 20.6311 69.4573 20.6104L68.2517 20.6125C68.0231 20.6296 67.8463 20.4997 67.8567 20.3872L67.848 19.2523C67.8619 19.1019 68.0227 19.0032 68.2468 19.0239ZM71.1986 18.9953L72.4042 18.9931C72.6328 18.9761 72.8097 19.1059 72.7993 19.2185L72.808 20.3533C72.7976 20.4659 72.6333 20.6024 72.4092 20.5817L71.2036 20.5838C70.975 20.6009 70.7981 20.471 70.8085 20.3585L70.7998 19.2236C70.8102 19.1111 70.971 19.0124 71.1986 18.9953ZM74.1113 18.9991L75.3169 18.997C75.5455 18.9799 75.7224 19.1098 75.712 19.2223L75.7207 20.3572C75.7103 20.4697 75.546 20.6062 75.3219 20.5855L74.1163 20.5877C73.8877 20.6047 73.7108 20.4749 73.7212 20.3624L73.7125 19.2275C73.7229 19.1149 73.8837 19.0163 74.1113 18.9991ZM77.0599 19.0063L78.2655 19.0041C78.4941 18.9871 78.6709 19.1169 78.6605 19.2295L78.6692 20.3644C78.6588 20.4769 78.4945 20.6134 78.2704 20.5927L77.0648 20.5949C76.8362 20.6119 76.6594 20.4821 76.6698 20.3695L76.6611 19.2346C76.6715 19.1221 76.8323 19.0234 77.0599 19.0063ZM79.9725 19.0101L81.1782 19.008C81.4067 18.9909 81.5836 19.1208 81.5732 19.2333L81.5819 20.3682C81.5715 20.4808 81.4072 20.6173 81.1831 20.5966L79.9775 20.5987C79.7489 20.6158 79.572 20.4859 79.5824 20.3734L79.5738 19.2385C79.5841 19.1259 79.7484 18.9894 79.9725 19.0101ZM82.9211 19.0173L84.1267 19.0152C84.3553 18.9981 84.5321 19.128 84.5218 19.2405L84.5304 20.3754C84.52 20.4879 84.3557 20.6244 84.1316 20.6037L82.926 20.6059C82.6974 20.6229 82.5206 20.4931 82.531 20.3805L82.5223 19.2457C82.4984 19.0918 82.697 18.9966 82.9211 19.0173ZM85.8371 18.9853L87.0427 18.9832C87.2713 18.9661 87.4481 19.0959 87.4377 19.2085L87.4464 20.3434C87.436 20.4559 87.2717 20.5924 87.0476 20.5717L85.8421 20.5739C85.6135 20.5909 85.4366 20.4611 85.447 20.3485L85.4383 19.2137C85.4487 19.1011 85.6095 19.0025 85.8371 18.9853ZM88.7498 18.9892L89.9554 18.987C90.184 18.97 90.3608 19.0998 90.3504 19.2124L90.3591 20.3472C90.3487 20.4598 90.1844 20.5963 89.9603 20.5756L88.7547 20.5777C88.5261 20.5948 88.3493 20.4649 88.3597 20.3524L88.351 19.2175C88.3614 19.105 88.559 19.0097 88.7498 18.9892Z" fill="#9E2629" stroke="#9E2629" stroke-width="0.265064"/>
</svg>
