<svg width="303" height="108" viewBox="0 0 303 108" fill="none" xmlns="http://www.w3.org/2000/svg">
<path d="M85.138 66.7152L80.738 54.6902C80.5213 54.1569 80.2963 53.5236 80.063 52.7902C79.8297 52.0569 79.5963 51.2652 79.363 50.4152C79.1463 51.2652 78.9213 52.0652 78.688 52.8152C78.4547 53.5486 78.2297 54.1902 78.013 54.7402L73.638 66.7152H85.138ZM97.013 80.3652H91.813C91.2297 80.3652 90.7547 80.2236 90.388 79.9402C90.0213 79.6402 89.7463 79.2736 89.563 78.8402L86.863 71.4652H71.888L69.188 78.8402C69.0547 79.2236 68.7963 79.5736 68.413 79.8902C68.0297 80.2069 67.5547 80.3652 66.988 80.3652H61.738L75.963 44.2152H82.813L97.013 80.3652ZM105.506 57.8652C106.023 57.3486 106.564 56.8736 107.131 56.4402C107.714 55.9902 108.323 55.6152 108.956 55.3152C109.606 54.9986 110.298 54.7569 111.031 54.5902C111.764 54.4069 112.564 54.3152 113.431 54.3152C114.831 54.3152 116.073 54.5569 117.156 55.0402C118.239 55.5069 119.139 56.1736 119.856 57.0402C120.589 57.8902 121.139 58.9152 121.506 60.1152C121.889 61.2986 122.081 62.6069 122.081 64.0402V80.3652H115.906V64.0402C115.906 62.4736 115.548 61.2652 114.831 60.4152C114.114 59.5486 113.023 59.1152 111.556 59.1152C110.489 59.1152 109.489 59.3569 108.556 59.8402C107.623 60.3236 106.739 60.9819 105.906 61.8152V80.3652H99.731V54.7152H103.506C104.306 54.7152 104.831 55.0902 105.081 55.8402L105.506 57.8652ZM133.729 57.8652C134.245 57.3486 134.787 56.8736 135.354 56.4402C135.937 55.9902 136.545 55.6152 137.179 55.3152C137.829 54.9986 138.52 54.7569 139.254 54.5902C139.987 54.4069 140.787 54.3152 141.654 54.3152C143.054 54.3152 144.295 54.5569 145.379 55.0402C146.462 55.5069 147.362 56.1736 148.079 57.0402C148.812 57.8902 149.362 58.9152 149.729 60.1152C150.112 61.2986 150.304 62.6069 150.304 64.0402V80.3652H144.129V64.0402C144.129 62.4736 143.77 61.2652 143.054 60.4152C142.337 59.5486 141.245 59.1152 139.779 59.1152C138.712 59.1152 137.712 59.3569 136.779 59.8402C135.845 60.3236 134.962 60.9819 134.129 61.8152V80.3652H127.954V54.7152H131.729C132.529 54.7152 133.054 55.0902 133.304 55.8402L133.729 57.8652ZM172.701 64.5902C172.701 63.7902 172.585 63.0402 172.351 62.3402C172.135 61.6236 171.801 60.9986 171.351 60.4652C170.901 59.9319 170.326 59.5152 169.626 59.2152C168.943 58.8986 168.143 58.7402 167.226 58.7402C165.443 58.7402 164.035 59.2486 163.001 60.2652C161.985 61.2819 161.335 62.7236 161.051 64.5902H172.701ZM160.926 68.3152C161.026 69.6319 161.26 70.7736 161.626 71.7402C161.993 72.6902 162.476 73.4819 163.076 74.1152C163.676 74.7319 164.385 75.1986 165.201 75.5152C166.035 75.8152 166.951 75.9652 167.951 75.9652C168.951 75.9652 169.81 75.8486 170.526 75.6152C171.26 75.3819 171.893 75.1236 172.426 74.8402C172.976 74.5569 173.451 74.2986 173.851 74.0652C174.268 73.8319 174.668 73.7152 175.051 73.7152C175.568 73.7152 175.951 73.9069 176.201 74.2902L177.976 76.5402C177.293 77.3402 176.526 78.0152 175.676 78.5652C174.826 79.0986 173.935 79.5319 173.001 79.8652C172.085 80.1819 171.143 80.4069 170.176 80.5402C169.226 80.6736 168.301 80.7402 167.401 80.7402C165.618 80.7402 163.96 80.4486 162.426 79.8652C160.893 79.2652 159.56 78.3902 158.426 77.2402C157.293 76.0736 156.401 74.6402 155.751 72.9402C155.101 71.2236 154.776 69.2402 154.776 66.9902C154.776 65.2402 155.06 63.5986 155.626 62.0652C156.193 60.5152 157.001 59.1736 158.051 58.0402C159.118 56.8902 160.41 55.9819 161.926 55.3152C163.46 54.6486 165.185 54.3152 167.101 54.3152C168.718 54.3152 170.21 54.5736 171.576 55.0902C172.943 55.6069 174.118 56.3652 175.101 57.3652C176.085 58.3486 176.851 59.5652 177.401 61.0152C177.968 62.4486 178.251 64.0902 178.251 65.9402C178.251 66.8736 178.151 67.5069 177.951 67.8402C177.751 68.1569 177.368 68.3152 176.801 68.3152H160.926ZM205.395 80.3652H199.445C198.995 80.3652 198.628 80.2486 198.345 80.0152C198.078 79.7819 197.853 79.5152 197.67 79.2152L192.245 70.2902C192.161 70.5736 192.061 70.8402 191.945 71.0902C191.845 71.3402 191.728 71.5736 191.595 71.7902L186.795 79.2152C186.611 79.4986 186.386 79.7652 186.12 80.0152C185.853 80.2486 185.52 80.3652 185.12 80.3652H179.595L188.395 67.1402L179.945 54.7152H185.895C186.345 54.7152 186.678 54.7819 186.895 54.9152C187.111 55.0319 187.303 55.2319 187.47 55.5152L192.845 64.0652C193.028 63.4986 193.286 62.9402 193.62 62.3902L197.945 55.6402C198.311 55.0236 198.786 54.7152 199.37 54.7152H205.045L196.62 66.8652L205.395 80.3652ZM223.02 75.1152C224.27 75.1152 225.32 74.9652 226.17 74.6652C227.02 74.3652 227.695 73.9652 228.195 73.4652C228.712 72.9652 229.078 72.3819 229.295 71.7152C229.528 71.0486 229.645 70.3402 229.645 69.5902C229.645 68.8069 229.52 68.1069 229.27 67.4902C229.02 66.8569 228.628 66.3236 228.095 65.8902C227.562 65.4402 226.87 65.0986 226.02 64.8652C225.187 64.6319 224.178 64.5152 222.995 64.5152H216.22V75.1152H223.02ZM216.22 49.4152V59.8652H221.57C223.87 59.8652 225.603 59.4486 226.77 58.6152C227.953 57.7819 228.545 56.4569 228.545 54.6402C228.545 52.7569 228.012 51.4152 226.945 50.6152C225.878 49.8152 224.212 49.4152 221.945 49.4152H216.22ZM221.945 44.2152C224.312 44.2152 226.337 44.4402 228.02 44.8902C229.703 45.3402 231.078 45.9819 232.145 46.8152C233.228 47.6486 234.02 48.6569 234.52 49.8402C235.02 51.0236 235.27 52.3569 235.27 53.8402C235.27 54.6902 235.145 55.5069 234.895 56.2902C234.645 57.0569 234.253 57.7819 233.72 58.4652C233.203 59.1319 232.537 59.7402 231.72 60.2902C230.92 60.8402 229.962 61.3069 228.845 61.6902C233.812 62.8069 236.295 65.4902 236.295 69.7402C236.295 71.2736 236.003 72.6902 235.42 73.9902C234.837 75.2902 233.987 76.4152 232.87 77.3652C231.753 78.2986 230.378 79.0319 228.745 79.5652C227.112 80.0986 225.245 80.3652 223.145 80.3652H209.495V44.2152H221.945ZM247.391 54.7152V80.3652H241.191V54.7152H247.391ZM248.241 47.2402C248.241 47.7736 248.132 48.2736 247.916 48.7402C247.699 49.2069 247.407 49.6152 247.041 49.9652C246.691 50.3152 246.274 50.5986 245.791 50.8152C245.307 51.0152 244.791 51.1152 244.241 51.1152C243.707 51.1152 243.199 51.0152 242.716 50.8152C242.249 50.5986 241.841 50.3152 241.491 49.9652C241.141 49.6152 240.857 49.2069 240.641 48.7402C240.441 48.2736 240.341 47.7736 240.341 47.2402C240.341 46.6902 240.441 46.1736 240.641 45.6902C240.857 45.2069 241.141 44.7902 241.491 44.4402C241.841 44.0902 242.249 43.8152 242.716 43.6152C243.199 43.3986 243.707 43.2902 244.241 43.2902C244.791 43.2902 245.307 43.3986 245.791 43.6152C246.274 43.8152 246.691 44.0902 247.041 44.4402C247.407 44.7902 247.699 45.2069 247.916 45.6902C248.132 46.1736 248.241 46.6902 248.241 47.2402ZM265.036 54.3152C266.936 54.3152 268.661 54.6236 270.211 55.2402C271.778 55.8569 273.111 56.7319 274.211 57.8652C275.328 58.9986 276.186 60.3819 276.786 62.0152C277.386 63.6486 277.686 65.4736 277.686 67.4902C277.686 69.5236 277.386 71.3569 276.786 72.9902C276.186 74.6236 275.328 76.0152 274.211 77.1652C273.111 78.3152 271.778 79.1986 270.211 79.8152C268.661 80.4319 266.936 80.7402 265.036 80.7402C263.119 80.7402 261.378 80.4319 259.811 79.8152C258.244 79.1986 256.903 78.3152 255.786 77.1652C254.686 76.0152 253.828 74.6236 253.211 72.9902C252.611 71.3569 252.311 69.5236 252.311 67.4902C252.311 65.4736 252.611 63.6486 253.211 62.0152C253.828 60.3819 254.686 58.9986 255.786 57.8652C256.903 56.7319 258.244 55.8569 259.811 55.2402C261.378 54.6236 263.119 54.3152 265.036 54.3152ZM265.036 75.9902C267.169 75.9902 268.744 75.2736 269.761 73.8402C270.794 72.4069 271.311 70.3069 271.311 67.5402C271.311 64.7736 270.794 62.6652 269.761 61.2152C268.744 59.7652 267.169 59.0402 265.036 59.0402C262.869 59.0402 261.261 59.7736 260.211 61.2402C259.178 62.6902 258.661 64.7902 258.661 67.5402C258.661 70.2902 259.178 72.3902 260.211 73.8402C261.261 75.2736 262.869 75.9902 265.036 75.9902ZM298.047 59.7152C297.88 59.9819 297.705 60.1736 297.522 60.2902C297.339 60.3902 297.105 60.4402 296.822 60.4402C296.522 60.4402 296.197 60.3569 295.847 60.1902C295.514 60.0236 295.122 59.8402 294.672 59.6402C294.222 59.4236 293.705 59.2319 293.122 59.0652C292.555 58.8986 291.88 58.8152 291.097 58.8152C289.88 58.8152 288.922 59.0736 288.222 59.5902C287.539 60.1069 287.197 60.7819 287.197 61.6152C287.197 62.1652 287.372 62.6319 287.722 63.0152C288.089 63.3819 288.564 63.7069 289.147 63.9902C289.747 64.2736 290.422 64.5319 291.172 64.7652C291.922 64.9819 292.68 65.2236 293.447 65.4902C294.23 65.7569 294.997 66.0652 295.747 66.4152C296.497 66.7486 297.164 67.1819 297.747 67.7152C298.347 68.2319 298.822 68.8569 299.172 69.5902C299.539 70.3236 299.722 71.2069 299.722 72.2402C299.722 73.4736 299.497 74.6152 299.047 75.6652C298.614 76.6986 297.964 77.5986 297.097 78.3652C296.23 79.1152 295.155 79.7069 293.872 80.1402C292.605 80.5569 291.139 80.7652 289.472 80.7652C288.589 80.7652 287.722 80.6819 286.872 80.5152C286.039 80.3652 285.23 80.1486 284.447 79.8652C283.68 79.5819 282.964 79.2486 282.297 78.8652C281.647 78.4819 281.072 78.0652 280.572 77.6152L281.997 75.2652C282.18 74.9819 282.397 74.7652 282.647 74.6152C282.897 74.4652 283.214 74.3902 283.597 74.3902C283.98 74.3902 284.339 74.4986 284.672 74.7152C285.022 74.9319 285.422 75.1652 285.872 75.4152C286.322 75.6652 286.847 75.8986 287.447 76.1152C288.064 76.3319 288.839 76.4402 289.772 76.4402C290.505 76.4402 291.13 76.3569 291.647 76.1902C292.18 76.0069 292.614 75.7736 292.947 75.4902C293.297 75.2069 293.547 74.8819 293.697 74.5152C293.864 74.1319 293.947 73.7402 293.947 73.3402C293.947 72.7402 293.764 72.2486 293.397 71.8652C293.047 71.4819 292.572 71.1486 291.972 70.8652C291.389 70.5819 290.714 70.3319 289.947 70.1152C289.197 69.8819 288.422 69.6319 287.622 69.3652C286.839 69.0986 286.064 68.7902 285.297 68.4402C284.547 68.0736 283.872 67.6152 283.272 67.0652C282.689 66.5152 282.214 65.8402 281.847 65.0402C281.497 64.2402 281.322 63.2736 281.322 62.1402C281.322 61.0902 281.53 60.0902 281.947 59.1402C282.364 58.1902 282.972 57.3652 283.772 56.6652C284.589 55.9486 285.597 55.3819 286.797 54.9652C288.014 54.5319 289.414 54.3152 290.997 54.3152C292.764 54.3152 294.372 54.6069 295.822 55.1902C297.272 55.7736 298.48 56.5402 299.447 57.4902L298.047 59.7152Z" fill="white"/>
<mask id="mask0_10_20" style="mask-type:luminance" maskUnits="userSpaceOnUse" x="9" y="23" width="52" height="57">
<path d="M9.29749 24.4263L19.1056 79.4637L51.9872 79.1918L60.8091 23.9934L9.29749 24.4263Z" fill="white"/>
</mask>
<g mask="url(#mask0_10_20)">
<path d="M27.5487 95.2391L20.9884 96.4527L2.93973 -1.21235L9.50002 -2.42595L27.5487 95.2391Z" fill="white"/>
<path d="M39.2288 95.0896L32.8319 96.1914L14.7832 -1.47363L21.1801 -2.57547L39.2288 95.0896Z" fill="white"/>
<path d="M50.9229 94.9432L44.7967 96.0938L26.748 -1.57132L32.8742 -2.72191L50.9229 94.9432Z" fill="white"/>
<path d="M62.5923 94.9325L56.6275 95.9709L38.5788 -1.69421L44.5436 -2.73265L62.5923 94.9325Z" fill="white"/>
<path d="M74.2734 94.783L68.5822 95.8708L50.5335 -1.7943L56.2247 -2.88205L74.2734 94.783Z" fill="white"/>
</g>
<path d="M64.0852 24.3364C64.0816 25.026 63.8092 25.6869 63.3259 26.1787C62.8426 26.6706 62.1864 26.9545 61.497 26.97L7.70208 27.5615C7.0125 27.5579 6.35152 27.2855 5.85968 26.8021C5.36785 26.3188 5.08397 25.6627 5.06841 24.9732C5.07196 24.2837 5.34438 23.6227 5.82772 23.1308C6.31106 22.639 6.96719 22.3552 7.6566 22.3396L61.4515 21.7482C62.1324 21.779 62.7779 22.0602 63.264 22.5379C63.7501 23.0156 64.0425 23.6562 64.0852 24.3364Z" fill="white"/>
<path d="M59.2805 17.9188L59.4281 17.0999C59.56 15.8943 59.2132 14.6852 58.4624 13.7327C57.7116 12.7802 56.6169 12.1606 55.4138 12.0072C55.1377 11.9352 54.8482 11.9315 54.5703 11.9964C54.3102 11.1548 53.8158 10.4047 53.1449 9.83391C52.474 9.26311 51.6544 8.89526 50.782 8.77333C50.1323 8.67947 49.4697 8.73724 48.8461 8.94216C48.2225 9.14707 47.6548 9.49355 47.1875 9.95447C46.8685 9.05132 46.2736 8.27133 45.487 7.7249C44.7003 7.17848 43.7617 6.8933 42.804 6.90967C42.1144 6.89917 41.4321 7.05279 40.8135 7.3579C40.1949 7.66301 39.6578 8.11082 39.2464 8.66442C38.901 7.77876 38.2996 7.01609 37.5188 6.47377C36.7381 5.93145 35.8134 5.63409 34.8629 5.61963C34.1555 5.61346 33.4575 5.78338 32.8321 6.11411C32.2066 6.44483 31.6733 6.92597 31.2801 7.51415C30.8629 6.94849 30.3159 6.49148 29.685 6.18165C29.0541 5.87182 28.358 5.71827 27.6554 5.73398C26.7743 5.77186 25.9205 6.05032 25.1865 6.53905C24.4525 7.02778 23.8663 7.70817 23.4916 8.50642C22.5746 7.62027 21.3644 7.10131 20.0903 7.04796C19.0612 7.07572 18.0695 7.43945 17.2665 8.08364C16.4634 8.72783 15.8933 9.61708 15.643 10.6157L14.278 10.3696C13.6708 10.369 13.0698 10.491 12.511 10.7284C11.9522 10.9658 11.4472 11.3137 11.0261 11.7511C10.6051 12.1885 10.2768 12.7065 10.0609 13.2739C9.84497 13.8414 9.74594 14.4466 9.76973 15.0532C9.73647 15.3915 9.77059 15.733 9.87011 16.058C8.8354 16.2903 7.91082 16.8684 7.24902 17.697C6.58722 18.5256 6.22774 19.5552 6.22996 20.6156C6.22936 21.2227 6.35138 21.8236 6.58872 22.3823C6.82606 22.941 7.17382 23.4459 7.61113 23.8669C8.04844 24.288 8.56629 24.6163 9.13361 24.8322C9.70093 25.0482 10.306 25.1473 10.9126 25.1237C11.4829 25.1418 12.0504 25.0369 12.5766 24.8161C13.1028 24.5953 13.5752 24.2639 13.9619 23.8443C14.3878 24.3611 14.9248 24.7752 15.5329 25.0556C16.1411 25.336 16.8047 25.4756 17.4743 25.464C18.1953 25.4543 18.9047 25.2809 19.5489 24.957C20.1931 24.633 20.7552 24.1669 21.193 23.5939C21.6101 24.1596 22.1572 24.6166 22.788 24.9264C23.4189 25.2362 24.115 25.3898 24.8177 25.3741C25.864 25.3659 26.8765 25.0023 27.6891 24.3431C28.1354 24.8729 28.6951 25.2956 29.3267 25.5802C29.9583 25.8648 30.6457 26.004 31.3383 25.9874C32.5462 25.945 33.6932 25.4467 34.5486 24.5927L35.9136 24.8388C36.0504 24.8634 36.3476 24.7757 36.4844 24.8004C36.8947 25.523 37.4858 26.1265 38.1998 26.5517C38.9138 26.9768 39.7261 27.2089 40.5569 27.2252C41.164 27.2258 41.765 27.1038 42.3238 26.8664C42.8826 26.629 43.3877 26.2812 43.8088 25.8438C44.2298 25.4063 44.5581 24.8884 44.774 24.321C44.9899 23.7535 45.0889 23.1483 45.0652 22.5416L45.0898 22.4048C45.3871 22.3172 45.5239 22.3418 45.821 22.2551C46.0532 23.2898 46.6314 24.2144 47.46 24.8762C48.2886 25.538 49.3181 25.8975 50.3785 25.8953C51.047 25.8828 51.7057 25.7327 52.3136 25.4543C52.9215 25.1759 53.4654 24.7753 53.9116 24.2773C54.2047 25.0468 54.7105 25.7172 55.37 26.2103C56.0295 26.7033 56.8156 26.9988 57.6367 27.0622C58.8423 27.194 60.0514 26.8472 61.0039 26.0964C61.9564 25.3457 62.5761 24.2509 62.7295 23.0478C62.8608 21.9225 62.5859 20.7873 61.9544 19.8467C61.3229 18.9061 60.3761 18.2219 59.2848 17.9175" fill="white"/>
<mask id="mask1_10_20" style="mask-type:luminance" maskUnits="userSpaceOnUse" x="33" y="5" width="32" height="75">
<path d="M33.8283 5.59681L63.9075 5.2405L64.5537 79.0556L34.4745 79.4119L33.8283 5.59681Z" fill="white"/>
</mask>
<g mask="url(#mask1_10_20)">
<g opacity="0.1">
<path d="M62.7192 22.2163C62.6611 21.2312 62.297 20.2887 61.6778 19.5203C61.0586 18.7519 60.2151 18.1958 59.2648 17.9296L59.4121 17.1128C59.5439 15.9072 59.1971 14.6979 58.4463 13.7454C57.6956 12.793 56.6008 12.1733 55.3978 12.0199C55.1216 11.948 54.8321 11.9443 54.5543 12.0092C54.2942 11.1676 53.7997 10.4175 53.1288 9.84668C52.4579 9.27588 51.6383 8.90803 50.7659 8.7861C50.1162 8.69224 49.4537 8.75001 48.8301 8.95493C48.2065 9.15984 47.6388 9.50632 47.1714 9.96724C46.8524 9.06409 46.2575 8.2841 45.4709 7.73767C44.6842 7.19125 43.7457 6.90607 42.788 6.92244C42.0983 6.91194 41.4161 7.06556 40.7975 7.37067C40.1789 7.67578 39.6417 8.12359 39.2303 8.67719C38.885 7.79153 38.2835 7.02886 37.5028 6.48654C36.722 5.94422 35.7974 5.64686 34.8469 5.6324C34.4494 5.63893 34.0558 5.7108 33.6817 5.84511L34.3527 79.5224L51.8702 79.2981L60.1509 27.1022L61.2914 27.0263C61.9808 27.0107 62.637 26.7268 63.1203 26.235C63.6036 25.7432 63.8761 25.0822 63.8796 24.3926C63.9449 23.9533 63.8679 23.5046 63.6598 23.1122C63.4517 22.7198 63.1234 22.4043 62.7231 22.2119" fill="white"/>
</g>
</g>
<path d="M210.16 86.2432L210.156 86.6969L210.875 86.688C211.104 86.671 211.281 86.8008 211.27 86.9133L211.279 88.0482C211.269 88.1608 211.104 88.2973 210.88 88.2766L210.161 88.2855L210.162 96.869L211.031 96.874C211.26 96.8569 211.437 96.9868 211.426 97.0993L211.435 98.2342C211.425 98.3467 211.26 98.4832 211.036 98.4625L210.167 98.4576L210.17 98.8356L300.207 98.7958L300.194 96.0724L298.04 96.0623L298.05 88.9925L300.205 89.0027L300.199 86.2037L210.162 86.2434L210.16 86.2432ZM212.613 86.6969L213.819 86.6947C214.047 86.6777 214.224 86.8075 214.214 86.92L214.223 88.0549C214.212 88.1675 214.048 88.304 213.824 88.2833L212.618 88.2854C212.39 88.3025 212.213 88.1726 212.223 88.0601L212.215 86.9252C212.228 86.7748 212.389 86.6762 212.613 86.6969ZM215.529 86.6649L216.735 86.6627C216.963 86.6457 217.14 86.7755 217.13 86.8881L217.139 88.0229C217.128 88.1355 216.964 88.272 216.74 88.2513L215.534 88.2534C215.306 88.2705 215.129 88.1406 215.139 88.0281L215.131 86.8932C215.139 86.7795 215.3 86.6808 215.528 86.6638L215.529 86.6649ZM218.478 86.672L219.683 86.6699C219.912 86.6528 220.089 86.7827 220.078 86.8952L220.087 88.0301C220.077 88.1426 219.912 88.2792 219.688 88.2585L218.483 88.2606C218.254 88.2777 218.077 88.1478 218.088 88.0353L218.079 86.9004C218.089 86.7878 218.25 86.6892 218.478 86.672ZM221.391 86.6759L222.596 86.6737C222.825 86.6567 223.002 86.7865 222.991 86.8991L223 88.034C222.989 88.1465 222.825 88.283 222.601 88.2623L221.395 88.2645C221.167 88.2815 220.99 88.1517 221 88.0391L220.992 86.9042C221.002 86.7917 221.163 86.693 221.391 86.6759ZM224.339 86.6831L225.545 86.6809C225.773 86.6639 225.95 86.7937 225.94 86.9062L225.948 88.0411C225.938 88.1537 225.774 88.2902 225.55 88.2695L224.344 88.2716C224.115 88.2887 223.939 88.1588 223.949 88.0463L223.94 86.9114C223.951 86.7989 224.115 86.6624 224.339 86.6831ZM227.252 86.6869L228.457 86.6848C228.686 86.6677 228.863 86.7976 228.852 86.9101L228.861 88.045C228.851 88.1575 228.686 88.294 228.462 88.2733L227.257 88.2755C227.028 88.2925 226.851 88.1627 226.862 88.0501L226.853 86.9153C226.863 86.8027 227.028 86.6662 227.252 86.6869ZM230.2 86.6941L231.406 86.6919C231.634 86.6749 231.811 86.8047 231.801 86.9173L231.81 88.0521C231.799 88.1647 231.635 88.3012 231.411 88.2805L230.205 88.2826C229.977 88.2997 229.8 88.1699 229.81 88.0573L229.802 86.9224C229.778 86.7685 229.976 86.6734 230.2 86.6941ZM233.116 86.6621L234.322 86.6599C234.551 86.6429 234.727 86.7727 234.717 86.8853L234.726 88.0202C234.715 88.1327 234.551 88.2692 234.327 88.2485L233.121 88.2507C232.893 88.2677 232.716 88.1379 232.726 88.0253L232.718 86.8904C232.728 86.7779 232.889 86.6792 233.116 86.6621ZM236.065 86.6693L237.27 86.6671C237.499 86.65 237.676 86.7799 237.665 86.8924L237.674 88.0273C237.664 88.1399 237.499 88.2764 237.275 88.2557L236.07 88.2578C235.841 88.2749 235.664 88.145 235.675 88.0325L235.666 86.8976C235.639 86.7816 235.837 86.6864 236.065 86.6693ZM238.978 86.6731L240.183 86.671C240.412 86.6539 240.589 86.7837 240.578 86.8963L240.587 88.0312C240.576 88.1437 240.412 88.2802 240.188 88.2595L238.982 88.2617C238.754 88.2787 238.577 88.1489 238.587 88.0363L238.579 86.9015C238.589 86.7889 238.75 86.6903 238.978 86.6731ZM241.89 86.678L243.096 86.6758C243.324 86.6588 243.501 86.7886 243.491 86.9011L243.499 88.036C243.489 88.1486 243.325 88.2851 243.101 88.2644L241.895 88.2665C241.666 88.2836 241.49 88.1537 241.5 88.0412L241.491 86.9063C241.502 86.7938 241.703 86.6607 241.89 86.678ZM244.839 86.6851L246.044 86.683C246.273 86.6659 246.45 86.7958 246.439 86.9083L246.448 88.0432C246.438 88.1557 246.273 88.2923 246.049 88.2716L244.844 88.2737C244.615 88.2908 244.438 88.1609 244.449 88.0484L244.44 86.9135C244.454 86.7631 244.615 86.6644 244.839 86.6851ZM247.751 86.69L248.957 86.6878C249.185 86.6708 249.362 86.8006 249.352 86.9132L249.361 88.0481C249.35 88.1606 249.186 88.2971 248.962 88.2764L247.756 88.2785C247.528 88.2956 247.351 88.1658 247.361 88.0532L247.352 86.9183C247.366 86.7679 247.564 86.6727 247.751 86.69ZM250.703 86.6613L251.909 86.6591C252.137 86.6421 252.314 86.7719 252.304 86.8845L252.312 88.0194C252.302 88.1319 252.138 88.2684 251.914 88.2477L250.708 88.2499C250.479 88.2669 250.303 88.1371 250.313 88.0245L250.304 86.8896C250.306 86.7733 250.466 86.6765 250.694 86.6605L250.703 86.6613ZM253.616 86.6661L254.821 86.664C255.05 86.6469 255.227 86.7768 255.216 86.8893L255.225 88.0242C255.215 88.1368 255.05 88.2733 254.826 88.2526L253.621 88.2547C253.392 88.2718 253.215 88.1419 253.226 88.0294L253.217 86.8945C253.216 86.7799 253.415 86.6848 253.606 86.6642L253.616 86.6661ZM256.564 86.6733L257.77 86.6712C257.998 86.6541 258.175 86.784 258.165 86.8965L258.174 88.0314C258.163 88.1439 257.999 88.2804 257.775 88.2597L256.569 88.2619C256.341 88.2789 256.164 88.1491 256.174 88.0365L256.165 86.9017C256.176 86.7891 256.34 86.6526 256.564 86.6733ZM259.477 86.6772L260.683 86.675C260.911 86.658 261.088 86.7878 261.078 86.9004L261.086 88.0352C261.076 88.1478 260.912 88.2843 260.688 88.2636L259.482 88.2657C259.253 88.2828 259.076 88.1529 259.087 88.0404L259.078 86.9055C259.089 86.793 259.29 86.6599 259.477 86.6772ZM262.425 86.6853L263.631 86.6832C263.86 86.6661 264.036 86.796 264.026 86.9085L264.035 88.0434C264.024 88.1559 263.86 88.2924 263.636 88.2717L262.43 88.2739C262.202 88.291 262.025 88.1611 262.035 88.0486L262.027 86.9137C262.041 86.7633 262.201 86.6646 262.425 86.6853ZM265.341 86.6533L266.547 86.6512C266.776 86.6341 266.952 86.764 266.942 86.8765L266.951 88.0114C266.94 88.124 266.776 88.2605 266.552 88.2398L265.346 88.2419C265.118 88.259 264.941 88.1291 264.951 88.0166L264.943 86.8817C264.94 86.7659 265.138 86.6707 265.328 86.6541L265.341 86.6533ZM268.29 86.6605L269.496 86.6584C269.724 86.6413 269.901 86.7711 269.891 86.8837L269.899 88.0186C269.889 88.1311 269.725 88.2676 269.501 88.2469L268.295 88.2491C268.066 88.2661 267.889 88.1363 267.9 88.0237L267.878 86.8896C267.889 86.7741 268.05 86.6755 268.278 86.6584L268.29 86.6605ZM271.203 86.6644L272.408 86.6622C272.637 86.6452 272.814 86.775 272.803 86.8875L272.812 88.0224C272.802 88.135 272.637 88.2715 272.413 88.2508L271.208 88.2529C270.979 88.27 270.802 88.1401 270.813 88.0276L270.804 86.8927C270.8 86.7779 270.998 86.6826 271.189 86.6621L271.203 86.6644ZM274.151 86.6715L275.357 86.6694C275.585 86.6523 275.762 86.7822 275.752 86.8947L275.761 88.0296C275.75 88.1421 275.586 88.2786 275.362 88.2579L274.156 88.2601C273.928 88.2771 273.751 88.1473 273.761 88.0348L273.752 86.8999C273.749 86.786 273.913 86.6495 274.141 86.6706L274.151 86.6715ZM277.064 86.6754L278.269 86.6732C278.498 86.6562 278.675 86.786 278.665 86.8986L278.673 88.0335C278.663 88.146 278.499 88.2825 278.274 88.2618L277.069 88.2639C276.84 88.281 276.663 88.1512 276.674 88.0386L276.665 86.9037C276.664 86.752 276.824 86.6532 277.049 86.674L277.064 86.6754ZM280.016 86.6467L281.221 86.6445C281.45 86.6275 281.627 86.7573 281.616 86.8699L281.625 88.0048C281.615 88.1173 281.45 88.2538 281.226 88.2331L280.021 88.2353C279.792 88.2523 279.615 88.1225 279.626 88.0099L279.617 86.875C279.627 86.7625 279.788 86.6638 280.016 86.6467ZM282.928 86.6505L284.134 86.6484C284.363 86.6313 284.539 86.7612 284.529 86.8737L284.538 88.0086C284.527 88.1212 284.363 88.2577 284.139 88.237L282.933 88.2391C282.705 88.2562 282.528 88.1263 282.538 88.0138L282.53 86.8789C282.523 86.7638 282.68 86.6648 282.912 86.6491L282.928 86.6505ZM285.877 86.6577L287.083 86.6556C287.311 86.6385 287.488 86.7684 287.478 86.8809L287.486 88.0158C287.476 88.1283 287.312 88.2648 287.088 88.2441L285.882 88.2463C285.653 88.2633 285.476 88.1335 285.487 88.0209L285.478 86.8861C285.489 86.7735 285.649 86.6749 285.877 86.6577ZM288.79 86.6626L289.995 86.6604C290.224 86.6434 290.401 86.7732 290.39 86.8858L290.399 88.0206C290.388 88.1332 290.224 88.2697 290 88.249L288.795 88.2511C288.566 88.2682 288.389 88.1384 288.399 88.0258L288.391 86.8909C288.401 86.7784 288.565 86.6419 288.79 86.6626ZM291.738 86.6697L292.944 86.6676C293.172 86.6505 293.349 86.7804 293.339 86.8929L293.347 88.0278C293.337 88.1404 293.173 88.2769 292.949 88.2562L291.743 88.2583C291.514 88.2754 291.338 88.1455 291.348 88.033L291.339 86.8981C291.332 86.7839 291.496 86.6474 291.72 86.6681L291.738 86.6697ZM294.651 86.6746L295.856 86.6724C296.085 86.6554 296.262 86.7852 296.251 86.8978L296.26 88.0327C296.25 88.1452 296.085 88.2817 295.861 88.261L294.656 88.2632C294.427 88.2802 294.25 88.1504 294.261 88.0378L294.252 86.9029C294.266 86.7525 294.427 86.6539 294.651 86.6746ZM297.603 86.6459L298.808 86.6438C299.037 86.6267 299.214 86.7565 299.203 86.8691L299.212 88.004C299.201 88.1165 299.037 88.253 298.813 88.2323L297.608 88.2345C297.379 88.2515 297.202 88.1217 297.212 88.0091L297.204 86.8743C297.158 86.7545 297.356 86.6593 297.584 86.6432L297.603 86.6459ZM211.813 89.0066L227.504 89.0196L227.494 96.0893L211.803 96.0764L211.813 89.0066ZM229.06 88.9734L244.751 88.9863L244.741 96.0561L229.049 96.0431L229.06 88.9734ZM246.336 88.9811L262.027 88.9941L262.017 96.0638L246.326 96.0508L246.336 88.9811ZM263.578 88.9856L279.25 88.9948L279.24 96.0645L263.549 96.0516L263.559 88.9819L263.578 88.9856ZM280.82 88.9901L296.511 89.0031L296.501 96.0728L280.81 96.0599L280.82 88.9901ZM212.783 96.8851L213.989 96.883C214.217 96.8659 214.394 96.9957 214.384 97.1083L214.393 98.2432C214.382 98.3557 214.218 98.4922 213.994 98.4715L212.788 98.4737C212.56 98.4907 212.383 98.3609 212.393 98.2483L212.384 97.1135C212.395 97.0009 212.556 96.9023 212.783 96.8851ZM215.696 96.889L216.901 96.8868C217.13 96.8698 217.307 96.9996 217.297 97.1122L217.305 98.247C217.295 98.3596 217.131 98.4961 216.906 98.4754L215.701 98.4775C215.472 98.4946 215.295 98.3647 215.306 98.2522L215.297 97.1173C215.307 97.0048 215.509 96.8717 215.696 96.889ZM218.644 96.8961L219.85 96.894C220.079 96.8769 220.255 97.0068 220.245 97.1193L220.254 98.2542C220.243 98.3667 220.079 98.5033 219.855 98.4826L218.649 98.4847C218.421 98.5018 218.244 98.3719 218.254 98.2594L218.23 97.123C218.244 96.9726 218.404 96.874 218.629 96.8947L218.644 96.8961ZM221.56 96.8641L222.766 96.862C222.995 96.8449 223.171 96.9748 223.161 97.0873L223.17 98.2222C223.159 98.3348 222.995 98.4713 222.771 98.4506L221.565 98.4527C221.337 98.4698 221.16 98.3399 221.17 98.2274L221.162 97.0925C221.172 96.9799 221.37 96.8847 221.56 96.8641ZM224.509 96.8713L225.715 96.8692C225.943 96.8521 226.12 96.9819 226.11 97.0945L226.118 98.2294C226.108 98.3419 225.944 98.4784 225.72 98.4577L224.514 98.4599C224.285 98.4769 224.108 98.3471 224.119 98.2345L224.11 97.0996C224.121 96.9871 224.281 96.8885 224.509 96.8713ZM227.422 96.8752L228.627 96.873C228.856 96.856 229.033 96.9858 229.022 97.0983L229.031 98.2332C229.021 98.3458 228.856 98.4823 228.632 98.4616L227.427 98.4637C227.198 98.4808 227.021 98.3509 227.032 98.2384L227.023 97.1035C227.033 96.991 227.231 96.8957 227.422 96.8752ZM230.37 96.8823L231.576 96.8802C231.804 96.8631 231.981 96.993 231.971 97.1055L231.98 98.2404C231.969 98.3529 231.805 98.4895 231.581 98.4688L230.375 98.4709C230.147 98.4879 229.97 98.3581 229.98 98.2456L229.971 97.1107C229.982 96.9981 230.146 96.8616 230.37 96.8823ZM233.283 96.8862L234.488 96.884C234.717 96.867 234.894 96.9968 234.884 97.1094L234.892 98.2443C234.882 98.3568 234.718 98.4933 234.493 98.4726L233.288 98.4748C233.059 98.4918 232.882 98.362 232.893 98.2494L232.884 97.1145C232.898 96.9641 233.096 96.8689 233.283 96.8862ZM236.231 96.8934L237.437 96.8912C237.666 96.8741 237.842 97.004 237.832 97.1165L237.841 98.2514C237.83 98.364 237.666 98.5005 237.442 98.4798L236.236 98.4819C236.008 98.499 235.831 98.3691 235.841 98.2566L235.833 97.1217C235.847 96.9713 236.007 96.8727 236.231 96.8934ZM239.147 96.8613L240.353 96.8592C240.582 96.8421 240.758 96.972 240.748 97.0845L240.757 98.2194C240.746 98.332 240.582 98.4685 240.358 98.4478L239.152 98.4499C238.924 98.467 238.747 98.3371 238.757 98.2246L238.749 97.0897C238.759 96.9771 238.957 96.8819 239.147 96.8613ZM242.096 96.8685L243.302 96.8664C243.53 96.8493 243.707 96.9792 243.697 97.0917L243.705 98.2266C243.695 98.3391 243.531 98.4756 243.307 98.4549L242.101 98.4571C241.872 98.4741 241.695 98.3443 241.706 98.2317L241.697 97.0969C241.708 96.9843 241.868 96.8857 242.096 96.8685ZM245.009 96.8724L246.214 96.8702C246.443 96.8532 246.62 96.983 246.609 97.0956L246.618 98.2304C246.608 98.343 246.443 98.4795 246.219 98.4588L245.014 98.4609C244.785 98.478 244.608 98.3482 244.619 98.2356L244.61 97.1007C244.62 96.9882 244.781 96.8895 245.009 96.8724ZM247.957 96.8805L249.163 96.8784C249.391 96.8613 249.568 96.9912 249.558 97.1037L249.566 98.2386C249.556 98.3511 249.392 98.4877 249.168 98.467L247.962 98.4691C247.733 98.4862 247.557 98.3563 247.567 98.2438L247.558 97.1089C247.569 96.9964 247.733 96.8598 247.957 96.8805ZM250.87 96.8844L252.075 96.8822C252.304 96.8652 252.481 96.995 252.47 97.1076L252.479 98.2425C252.469 98.355 252.304 98.4915 252.08 98.4708L250.875 98.473C250.646 98.49 250.469 98.3602 250.48 98.2476L250.471 97.1127C250.485 96.9624 250.646 96.8637 250.87 96.8844ZM253.822 96.8557L255.027 96.8536C255.256 96.8365 255.433 96.9663 255.422 97.0789L255.431 98.2138C255.421 98.3263 255.256 98.4628 255.032 98.4421L253.827 98.4443C253.598 98.4613 253.421 98.3315 253.432 98.2189L253.423 97.0841C253.433 96.9715 253.594 96.8729 253.822 96.8557ZM256.734 96.8596L257.94 96.8574C258.169 96.8404 258.345 96.9702 258.335 97.0827L258.344 98.2176C258.333 98.3302 258.169 98.4667 257.945 98.446L256.739 98.4481C256.511 98.4652 256.334 98.3353 256.344 98.2228L256.336 97.0879C256.346 96.9754 256.507 96.8767 256.734 96.8596ZM259.683 96.8677L260.888 96.8656C261.117 96.8485 261.294 96.9784 261.283 97.0909L261.292 98.2258C261.282 98.3383 261.117 98.4748 260.893 98.4541L259.688 98.4563C259.459 98.4734 259.282 98.3435 259.293 98.231L259.284 97.0961C259.257 96.98 259.455 96.8849 259.683 96.8677ZM262.596 96.8716L263.801 96.8694C264.03 96.8524 264.207 96.9822 264.196 97.0948L264.205 98.2296C264.194 98.3422 264.03 98.4787 263.806 98.458L262.6 98.4601C262.372 98.4772 262.195 98.3474 262.205 98.2348L262.197 97.0999C262.207 96.9874 262.371 96.8509 262.596 96.8716ZM265.544 96.8787L266.75 96.8766C266.978 96.8595 267.155 96.9894 267.145 97.1019L267.153 98.2368C267.143 98.3494 266.979 98.4859 266.755 98.4652L265.549 98.4673C265.32 98.4844 265.144 98.3545 265.154 98.242L265.145 97.1071C265.118 96.9911 265.32 96.858 265.544 96.8787ZM268.457 96.8836L269.662 96.8815C269.891 96.8644 270.068 96.9942 270.057 97.1068L270.066 98.2417C270.056 98.3542 269.891 98.4907 269.667 98.47L268.462 98.4722C268.233 98.4892 268.056 98.3594 268.067 98.2468L268.058 97.112C268.072 96.9616 268.233 96.8629 268.457 96.8836ZM271.408 96.8549L272.614 96.8528C272.843 96.8357 273.02 96.9656 273.009 97.0781L273.018 98.213C273.007 98.3255 272.843 98.462 272.619 98.4413L271.413 98.4435C271.185 98.4605 271.008 98.3307 271.018 98.2181L271.01 97.0833C270.955 96.9637 271.154 96.8686 271.381 96.8564L271.408 96.8549ZM274.321 96.8588L275.527 96.8566C275.755 96.8396 275.932 96.9694 275.922 97.082L275.93 98.2168C275.92 98.3294 275.756 98.4659 275.532 98.4452L274.326 98.4473C274.098 98.4644 273.921 98.3345 273.931 98.222L273.922 97.0871C273.933 96.9746 274.094 96.8759 274.321 96.8588ZM277.27 96.8659L278.475 96.8638C278.704 96.8467 278.881 96.9766 278.87 97.0891L278.879 98.224C278.869 98.3366 278.704 98.4731 278.48 98.4524L277.275 98.4545C277.046 98.4716 276.869 98.3417 276.88 98.2292L276.871 97.0943C276.843 96.9782 277.042 96.8831 277.27 96.8659ZM280.182 96.8698L281.388 96.8676C281.617 96.8506 281.793 96.9804 281.783 97.093L281.792 98.2279C281.781 98.3404 281.617 98.4769 281.393 98.4562L280.187 98.4584C279.959 98.4754 279.782 98.3456 279.792 98.233L279.784 97.0981C279.794 96.9856 279.958 96.8491 280.182 96.8698ZM283.095 96.8737L284.301 96.8715C284.529 96.8544 284.706 96.9843 284.696 97.0968L284.704 98.2317C284.694 98.3443 284.53 98.4808 284.306 98.4601L283.1 98.4622C282.871 98.4793 282.695 98.3494 282.705 98.2369L282.696 97.102C282.71 96.9516 282.908 96.8564 283.095 96.8737ZM286.047 96.845L287.253 96.8428C287.481 96.8258 287.658 96.9556 287.648 97.0682L287.656 98.203C287.646 98.3156 287.482 98.4521 287.257 98.4314L286.052 98.4335C285.823 98.4506 285.646 98.3207 285.657 98.2082L285.648 97.0733C285.659 96.9608 285.819 96.8621 286.047 96.845ZM288.96 96.8488L290.165 96.8467C290.394 96.8296 290.571 96.9595 290.56 97.072L290.569 98.2069C290.559 98.3194 290.394 98.4559 290.17 98.4352L288.965 98.4374C288.736 98.4544 288.559 98.3246 288.57 98.2121L288.561 97.0772C288.571 96.9646 288.769 96.8694 288.96 96.8488ZM291.908 96.856L293.114 96.8538C293.342 96.8368 293.519 96.9666 293.509 97.0792L293.518 98.2141C293.507 98.3266 293.343 98.4631 293.119 98.4424L291.913 98.4446C291.685 98.4616 291.508 98.3318 291.518 98.2192L291.509 97.0843C291.52 96.9718 291.681 96.8731 291.908 96.856ZM294.821 96.8608L296.026 96.8587C296.255 96.8416 296.432 96.9715 296.421 97.084L296.43 98.2189C296.42 98.3315 296.255 98.468 296.031 98.4473L294.826 98.4494C294.597 98.4665 294.42 98.3366 294.431 98.2241L294.422 97.0892C294.432 96.9766 294.634 96.8435 294.821 96.8608ZM297.769 96.868L298.975 96.8659C299.203 96.8488 299.38 96.9786 299.37 97.0912L299.379 98.2261C299.368 98.3386 299.204 98.4751 298.98 98.4544L297.774 98.4566C297.546 98.4736 297.369 98.3438 297.379 98.2312L297.371 97.0964C297.381 96.9838 297.545 96.8473 297.769 96.868Z" fill="white" stroke="white" stroke-width="0.265064"/>
</svg>
