<svg width="65" height="85" viewBox="0 0 65 85" fill="none" xmlns="http://www.w3.org/2000/svg">
<mask id="mask0_10_351" style="mask-type:luminance" maskUnits="userSpaceOnUse" x="9" y="23" width="52" height="56">
<path d="M9.29749 23.5703L19.1056 78.6077L51.9872 78.3359L60.8091 23.1374L9.29749 23.5703Z" fill="white"/>
</mask>
<g mask="url(#mask0_10_351)">
<path d="M27.5487 94.3833L20.9884 95.5969L2.93973 -2.0682L9.50002 -3.2818L27.5487 94.3833Z" fill="#9E2629"/>
<path d="M39.2288 94.2337L32.8319 95.3355L14.7832 -2.32957L21.1801 -3.43141L39.2288 94.2337Z" fill="#9E2629"/>
<path d="M50.9229 94.0873L44.7967 95.2379L26.748 -2.42722L32.8742 -3.57781L50.9229 94.0873Z" fill="#9E2629"/>
<path d="M62.5923 94.0767L56.6275 95.1151L38.5788 -2.54997L44.5436 -3.58841L62.5923 94.0767Z" fill="#9E2629"/>
<path d="M74.2734 93.9273L68.5822 95.015L50.5335 -2.65006L56.2247 -3.73781L74.2734 93.9273Z" fill="#9E2629"/>
</g>
<path d="M64.0852 23.4806C64.0816 24.1702 63.8092 24.8311 63.3259 25.323C62.8426 25.8148 62.1864 26.0987 61.497 26.1143L7.70208 26.7057C7.0125 26.7021 6.35152 26.4297 5.85968 25.9464C5.36785 25.463 5.08397 24.8069 5.06841 24.1175C5.07196 23.4279 5.34438 22.7669 5.82772 22.2751C6.31106 21.7832 6.96719 21.4994 7.6566 21.4838L61.4515 20.8924C62.1324 20.9232 62.7779 21.2045 63.264 21.6822C63.7501 22.1599 64.0425 22.8004 64.0852 23.4806Z" fill="#9E2629"/>
<path d="M59.2805 17.0629L59.4281 16.2441C59.56 15.0384 59.2132 13.8293 58.4624 12.8768C57.7116 11.9243 56.6169 11.3047 55.4138 11.1513C55.1377 11.0793 54.8482 11.0756 54.5703 11.1405C54.3102 10.2989 53.8158 9.54881 53.1449 8.97802C52.474 8.40722 51.6544 8.03937 50.782 7.91744C50.1323 7.82358 49.4697 7.88136 48.8461 8.08627C48.2225 8.29118 47.6548 8.63766 47.1875 9.09858C46.8685 8.19543 46.2736 7.41544 45.487 6.86901C44.7003 6.32259 43.7617 6.03741 42.804 6.05378C42.1144 6.04328 41.4321 6.1969 40.8135 6.50201C40.1949 6.80712 39.6578 7.25494 39.2464 7.80853C38.901 6.92287 38.2996 6.1602 37.5188 5.61788C36.7381 5.07557 35.8134 4.7782 34.8629 4.76374C34.1555 4.75757 33.4575 4.92749 32.8321 5.25822C32.2066 5.58894 31.6733 6.07008 31.2801 6.65826C30.8629 6.0926 30.3159 5.63559 29.685 5.32576C29.0541 5.01594 28.358 4.86238 27.6554 4.87809C26.7743 4.91598 25.9205 5.19443 25.1865 5.68316C24.4525 6.17189 23.8663 6.85228 23.4916 7.65053C22.5746 6.76439 21.3644 6.24542 20.0903 6.19207C19.0612 6.21983 18.0695 6.58356 17.2665 7.22775C16.4634 7.87194 15.8933 8.76119 15.643 9.75978L14.278 9.51376C13.6708 9.51312 13.0698 9.63515 12.511 9.87254C11.9522 10.1099 11.4472 10.4578 11.0261 10.8952C10.6051 11.3326 10.2768 11.8506 10.0609 12.4181C9.84497 12.9855 9.74594 13.5907 9.76973 14.1974C9.73647 14.5356 9.77059 14.8771 9.87011 15.2021C8.8354 15.4344 7.91082 16.0125 7.24902 16.8411C6.58722 17.6697 6.22774 18.6993 6.22996 19.7597C6.22936 20.3668 6.35138 20.9677 6.58872 21.5264C6.82606 22.0851 7.17382 22.5901 7.61113 23.0111C8.04844 23.4321 8.56629 23.7604 9.13361 23.9763C9.70093 24.1923 10.306 24.2914 10.9126 24.2678C11.4829 24.2859 12.0504 24.181 12.5766 23.9602C13.1028 23.7394 13.5752 23.408 13.9619 22.9884C14.3878 23.5052 14.9248 23.9193 15.5329 24.1997C16.1411 24.4801 16.8047 24.6197 17.4743 24.6081C18.1953 24.5984 18.9047 24.425 19.5489 24.1011C20.1931 23.7771 20.7552 23.311 21.193 22.738C21.6101 23.3037 22.1572 23.7607 22.788 24.0705C23.4189 24.3804 24.115 24.5339 24.8177 24.5182C25.864 24.51 26.8765 24.1465 27.6891 23.4872C28.1354 24.017 28.6951 24.4397 29.3267 24.7243C29.9583 25.009 30.6457 25.1481 31.3383 25.1315C32.5462 25.0891 33.6932 24.5908 34.5486 23.7369L35.9136 23.9829C36.0504 24.0075 36.3476 23.9198 36.4844 23.9445C36.8947 24.6671 37.4858 25.2707 38.1998 25.6958C38.9138 26.1209 39.7261 26.353 40.5569 26.3693C41.164 26.3699 41.765 26.2479 42.3238 26.0105C42.8826 25.7731 43.3877 25.4253 43.8088 24.9879C44.2298 24.5504 44.5581 24.0325 44.774 23.4651C44.9899 22.8976 45.0889 22.2924 45.0652 21.6857L45.0898 21.5489C45.3871 21.4613 45.5239 21.4859 45.821 21.3992C46.0532 22.4339 46.6314 23.3585 47.46 24.0203C48.2886 24.6821 49.3181 25.0416 50.3785 25.0394C51.047 25.0269 51.7057 24.8768 52.3136 24.5984C52.9215 24.32 53.4654 23.9194 53.9116 23.4214C54.2047 24.1909 54.7105 24.8613 55.37 25.3544C56.0295 25.8474 56.8156 26.1429 57.6367 26.2063C58.8423 26.3381 60.0514 25.9913 61.0039 25.2406C61.9564 24.4898 62.5761 23.395 62.7295 22.192C62.8608 21.0666 62.5859 19.9314 61.9544 18.9908C61.3229 18.0502 60.3761 17.366 59.2848 17.0616" fill="#9E2629"/>
</svg>
